<?xml version="1.0" encoding="iso-8859-1"?>
<!-- Generator: Adobe Illustrator 19.0.0, SVG Export Plug-In . SVG Version: 6.00 Build 0)  -->
<svg xmlns="http://www.w3.org/2000/svg" xmlns:xlink="http://www.w3.org/1999/xlink" version="1.1" id="Layer_1" x="0px" y="0px" viewBox="0 0 377.283 377.283" style="enable-background:new 0 0 377.283 377.283;" xml:space="preserve" width="512px" height="512px">
<g>
	<g>
		<rect x="97.183" y="226.232" width="181.32" height="7.501" fill="#FFFFFF"/>
		<rect x="97.183" y="247.347" width="181.32" height="7.501" fill="#FFFFFF"/>
		<path d="M259.021,41.953h-28.426C230.595,18.785,211.809,0,188.641,0s-41.953,18.785-41.953,41.953h-30.024v49.178h142.356V41.953    z M138.45,74.424c-4.413,0-7.992-3.579-7.992-7.992s3.579-7.992,7.992-7.992c4.413,0,7.992,3.579,7.992,7.992    C146.437,70.845,142.863,74.424,138.45,74.424z M170.737,41.953c0-9.871,8.033-17.905,17.905-17.905    c9.871,0,17.905,8.033,17.905,17.905H170.737z M237.844,74.424c-4.413,0-7.992-3.579-7.992-7.992s3.579-7.992,7.992-7.992    s7.992,3.579,7.992,7.992S242.258,74.424,237.844,74.424z" fill="#FFFFFF"/>
		<rect x="97.183" y="268.462" width="181.32" height="7.501" fill="#FFFFFF"/>
		<rect x="97.183" y="141.773" width="181.32" height="7.501" fill="#FFFFFF"/>
		<rect x="97.183" y="120.658" width="181.32" height="7.501" fill="#FFFFFF"/>
		<polygon points="271.903,58.307 271.903,73.835 306.171,73.835 306.171,302.331 247.296,302.331 247.296,361.206 255.314,353.188     255.314,310.344 298.158,310.344 298.813,309.688 247.301,361.206 247.296,361.206 71.112,361.206 71.112,73.835 105.38,73.835     105.38,58.307 54.968,58.307 54.968,377.283 320.712,377.283 320.712,73.835 322.314,73.835 322.314,58.307   " fill="#FFFFFF"/>
		<rect x="97.183" y="205.117" width="181.32" height="7.501" fill="#FFFFFF"/>
		<rect x="97.183" y="184.003" width="181.32" height="7.501" fill="#FFFFFF"/>
		<rect x="97.183" y="162.888" width="181.32" height="7.501" fill="#FFFFFF"/>
	</g>
</g>
<g>
</g>
<g>
</g>
<g>
</g>
<g>
</g>
<g>
</g>
<g>
</g>
<g>
</g>
<g>
</g>
<g>
</g>
<g>
</g>
<g>
</g>
<g>
</g>
<g>
</g>
<g>
</g>
<g>
</g>
</svg>
